<svg xmlns="http://www.w3.org/2000/svg" width="1080" height="660" viewBox="0 0 1080 660">
<rect width="1080" height="660" fill="#f6f8fb"/>
<style>text{font-family:Arial,sans-serif;fill:#1e293b} .small{font-size:14px}.label{font-size:18px}</style>
<text x="35" y="36" font-size="24">Table-relative rail: approach, lower, flatten</text>
<text x="35" y="60" class="small">Illustrative geometry only. Inner plane 2.54 x 1.27m; no outer rails, HUD, balls or real visibility validation.</text>
<line x1="94.04999999999998" y1="280" x2="563.95" y2="280" stroke="#0891b2" stroke-width="8"/>
<text x="110" y="313" class="label">Inner table plane</text>
<line x1="920.9999999999999" y1="130.5" x2="410.1522760844923" y2="280" stroke="#475569" stroke-width="2"/>
<circle cx="920.9999999999999" cy="130.5" r="7" fill="#475569"/>
<text x="932.9999999999999" y="121.5" class="small">overview: 22.6 deg</text>
<line x1="810.0" y1="195.5" x2="435.2403939517551" y2="280" stroke="#2563eb" stroke-width="2"/>
<circle cx="810.0" cy="195.5" r="7" fill="#2563eb"/>
<text x="822.0" y="186.5" class="small">middle: 17.8 deg</text>
<line x1="708.25" y1="246.2" x2="470.9832028537692" y2="280" stroke="#d97706" stroke-width="2"/>
<circle cx="708.25" cy="246.2" r="7" fill="#d97706"/>
<text x="720.25" y="237.2" class="small">near: 11.5 deg</text>
<text x="35" y="359" class="label">Same near r=2.05m / h=0.26m, different orbit directions</text>
<rect x="45.0" y="416.0" width="290" height="134" rx="3" fill="white" stroke="#94a3b8"/>
<polygon points="217.5,465.4 301.3,500.6 78.7,500.6 162.5,465.4" fill="#a5e4ef" stroke="#0891b2" stroke-width="2"/>
<text x="45" y="578" class="small">Orbit 0 deg / pitch 11.5 deg</text>
<text x="45" y="600" class="small">Plane height: 26.2% of viewport</text>
<rect x="390.0" y="416.0" width="290" height="134" rx="3" fill="white" stroke="#94a3b8"/>
<polygon points="516.0,462.9 654.0,475.2 621.5,503.1 457.8,466.9" fill="#a5e4ef" stroke="#0891b2" stroke-width="2"/>
<text x="390" y="578" class="small">Orbit 45 deg / pitch 12.3 deg</text>
<text x="390" y="600" class="small">Plane height: 30.0% of viewport</text>
<rect x="735.0" y="416.0" width="290" height="134" rx="3" fill="white" stroke="#94a3b8"/>
<polygon points="812.6,476.9 947.4,476.9 1006.4,489.1 753.6,489.1" fill="#a5e4ef" stroke="#0891b2" stroke-width="2"/>
<text x="735" y="578" class="small">Orbit 90 deg / pitch 8.0 deg</text>
<text x="735" y="600" class="small">Plane height: 9.1% of viewport</text>
<text x="35" y="638" class="small">This is a counterexample to one common height/radius curve, not a proposed production profile.</text></svg>